<?xml version="1.0" encoding="utf-8"?>
<!-- Generator: Adobe Illustrator 28.0.0, SVG Export Plug-In . SVG Version: 6.00 Build 0)  -->
<svg version="1.1" id="Capa_1" xmlns="http://www.w3.org/2000/svg" xmlns:xlink="http://www.w3.org/1999/xlink" x="0px" y="0px"
	 viewBox="0 0 525.4 377.7" style="enable-background:new 0 0 525.4 377.7;" xml:space="preserve">
<style type="text/css">
	.st0{fill-rule:evenodd;clip-rule:evenodd;fill:#FFFFFF;}
</style>
<path class="st0" d="M225.2,64.8c-0.3-12.1-10.7-23.8,1.6-33.2c13.7-10.4,22.9,0,31,5.4c7.7-5,11.1-12.6,25.6-8.2
	c18.9,5.6,19.1,35.9-29.3,57.6l-0.4,22.9c-38.8,2.8-42,23-59.6,44.6C168.5,184.9,66,228.2,22,247.5c-8.4,3.8-30.3,18-18.6,29.5
	c3.8,3.6,50.5,1.3,58.9,1.3h421.9c9,0,22.8,3.2,28-1.3c20.1-18.5-43.5-40.2-53.9-44.7c-34.9-15.5-115-52.2-135.9-77.3
	c-18.4-22.1-21.5-42.7-60.6-45.7V91.7c16.2-10.7,28.6-16.3,37-31.2c10.2-18.4,1.4-38-18.8-39.9c-16.5-1.6-15.7,7.2-26.3,3.6
	c-10.1-3.3-15.4-6.7-27.5-1.1c-13.4,6.2-16.9,20.4-11.4,33.6c2.8,6.8,3.1,7.2,10.4,8.2l0,0V64.8z M35.9,269.3l444.1,0.3
	c-11.4-8.3-40.7-21-54.5-27.9c-26.3-13.1-159.9-82.5-167.8-82.5c-8.5,0-95.6,46.6-111.4,54.3L35.9,269.3
	C35.9,269.3,35.9,269.3,35.9,269.3z"/>
</svg>
